<svg id="Layer_1" data-name="Layer 1" xmlns="http://www.w3.org/2000/svg" preserveAspectRatio="none" viewBox="0 0 139.9 100.8">
  <defs>
    <style>
      .cls-1 {
        fill: #f2b5a7;
      }

      .cls-2, .cls-4 {
        fill: #f2d8c2;
      }

      .cls-3 {
        fill: none;
        stroke: #000;
      }

      .cls-3, .cls-4 {
        stroke-miterlimit: 10;
      }

      .cls-4 {
        stroke: #f2b5a7;
      }
    </style>
  </defs>
  <title>4a8f8493-b566-455c-9286-b55167233812</title>
  <g>
    <path class="cls-1" d="M42.4.9a30.3,30.3,0,0,0-6,10.8,45.6,45.6,0,0,0-2.1,12.1A62.6,62.6,0,0,0,34.9,36a69.1,69.1,0,0,0,2.8,11.9c.7,1.9,1.4,3.8,2.3,5.7s1.8,3.8,2.6,5.8a45,45,0,0,1,3.6,12.5,30.7,30.7,0,0,1,0,6.6,26.5,26.5,0,0,1-1.5,6.6A25.3,25.3,0,0,1,36.9,96a22.6,22.6,0,0,1-25.7,1.5A23.9,23.9,0,0,1,2.4,87.4,23.6,23.6,0,0,1,.2,74.3,21,21,0,0,1,5.9,62.4a24.6,24.6,0,0,1,11.2-6.5,40.3,40.3,0,0,1,12.7-1.1l6.3.6,6.2,1.1a111.3,111.3,0,0,0-12.5-.6,40.1,40.1,0,0,0-12.1,1.9,22.4,22.4,0,0,0-9.9,6.4A18.4,18.4,0,0,0,3.3,74.7a21.2,21.2,0,0,0,9.9,19.6,18.8,18.8,0,0,0,21.3-1.4,21.3,21.3,0,0,0,6.7-9.1,26.3,26.3,0,0,0,1.3-11.5,41.4,41.4,0,0,0-3.1-11.6c-.7-1.9-1.6-3.8-2.4-5.7s-1.5-4-2.2-6.1a67.2,67.2,0,0,1-2.5-25.3,45.4,45.4,0,0,1,3-12.3A29.1,29.1,0,0,1,42.4.9Z"/>
    <g>
      <path class="cls-2" d="M9.4,60.9c-17,13.4-4.1,41.3,17.1,37.6,9.5-1.6,16.4-9.9,17.7-19.2s-1.5-15.7-4.9-23.2C29.2,54.8,17.7,54.4,9.4,60.9Z"/>
      <path class="cls-1" d="M9.4,60.9A19.8,19.8,0,0,0,2.3,72.1a20.9,20.9,0,0,0,1.4,13,21.8,21.8,0,0,0,8.5,9.7,19.5,19.5,0,0,0,5.9,2.4,20.7,20.7,0,0,0,6.3.3,19.9,19.9,0,0,0,11.3-5.1,22.6,22.6,0,0,0,6.5-10.6,25.9,25.9,0,0,0,.9-6.3,31.1,31.1,0,0,0-.4-6.5,62.5,62.5,0,0,0-4-12.7l.5.4a62.8,62.8,0,0,0-15.4-1,30.7,30.7,0,0,0-7.6,1.5A23.6,23.6,0,0,0,9.4,60.9Zm0,0a23.7,23.7,0,0,1,6.8-3.8,35.1,35.1,0,0,1,7.6-1.8,73.1,73.1,0,0,1,15.6.1h.3l.2.3a61.8,61.8,0,0,1,5,12.7,30,30,0,0,1,.1,14,24.2,24.2,0,0,1-7.3,12.1,22.4,22.4,0,0,1-6.1,3.9,21.9,21.9,0,0,1-7,1.6,21,21,0,0,1-13.5-3.8A23.2,23.2,0,0,1,2.9,85.4,22.5,22.5,0,0,1,2.1,72a20.7,20.7,0,0,1,2.8-6.1A21.7,21.7,0,0,1,9.4,60.9Z"/>
    </g>
    <path class="cls-1" d="M42.4.9A30.7,30.7,0,0,0,36.9,9a38.6,38.6,0,0,0-2.8,9.4l-.2,1.2c-.1.4-.1.8-.1,1.2l-.3,2.4v2.5c0,.8-.1,1.6,0,2.5v2.5c0,.8.1,1.6.2,2.4s.4,3.2.6,4.9a67.3,67.3,0,0,0,5.7,18.7,71.4,71.4,0,0,1,3.6,9.2,33,33,0,0,1,1.4,9.8,25.8,25.8,0,0,1-1.9,9.7,23.5,23.5,0,0,1-5.6,8.2,23.4,23.4,0,0,1-4,3,21.3,21.3,0,0,1-14.5,2.4A21.7,21.7,0,0,1,14,97.4a21.7,21.7,0,0,1-4.2-2.7,23,23,0,0,1-6.2-7.8,22.3,22.3,0,0,1-1.7-4.7c-.2-.8-.3-1.6-.5-2.5a24.4,24.4,0,0,1-.2-2.5,20.3,20.3,0,0,1,2.2-9.7,21.1,21.1,0,0,1,2.8-4.2A22.8,22.8,0,0,1,9.9,60,25.7,25.7,0,0,1,19,55.9c6.5-1.5,13.2-1.1,19.7-.3,13.1,1.6,25.8,5.2,38.8,6.4a73,73,0,0,0,19.5-.8,74.4,74.4,0,0,0,18.7-5.8A46.8,46.8,0,0,0,131.5,44a31.9,31.9,0,0,0,5.2-8.3,29.9,29.9,0,0,0,2.3-9.5,30,30,0,0,1-2.2,9.6,32.1,32.1,0,0,1-5.2,8.4A47.2,47.2,0,0,1,116,55.8a74.5,74.5,0,0,1-18.8,5.9,73.6,73.6,0,0,1-19.7.9C64.3,61.5,51.6,58,38.6,56.4c-6.5-.8-13.1-1.1-19.4.4a24.8,24.8,0,0,0-8.7,4A21.8,21.8,0,0,0,6.9,64a20.5,20.5,0,0,0-2.7,4,19.3,19.3,0,0,0-2.1,9.3,23.4,23.4,0,0,0,.2,2.4c.1.8.2,1.6.5,2.4a21.4,21.4,0,0,0,1.6,4.5A22.1,22.1,0,0,0,10.3,94a20.9,20.9,0,0,0,4.1,2.6,20.9,20.9,0,0,0,4.6,1.5,20.5,20.5,0,0,0,14-2.3A22.7,22.7,0,0,0,36.8,93a22.8,22.8,0,0,0,5.5-7.9,25.1,25.1,0,0,0,1.9-9.5A32.4,32.4,0,0,0,42.8,66a70.8,70.8,0,0,0-3.5-9.2A67.4,67.4,0,0,1,33.6,38c-.2-1.6-.5-3.3-.5-4.9s-.1-1.6-.2-2.5V28.1c0-.8,0-1.6.1-2.5V23.2l.3-2.4c.1-.4.1-.8.2-1.2l.2-1.2a38.8,38.8,0,0,1,3-9.4A30.7,30.7,0,0,1,42.4.9Z"/>
    <path class="cls-3" d="M139.1,26.2a24.5,24.5,0,0,0,.3-3.9,21.5,21.5,0,1,0-21.5,21.5c10.3,0,19.2-7.9,21.2-17.6C139.1,26,139.1,26.5,139.1,26.2Z"/>
    <path class="cls-4" d="M139.1,26.2a24.5,24.5,0,0,0,.3-3.9,21.5,21.5,0,1,0-21.5,21.5c10.3,0,19.2-7.9,21.2-17.6C139.1,26,139.1,26.5,139.1,26.2Z"/>
    <path class="cls-1" d="M139.1,26.2a22.9,22.9,0,0,0,.2-4.2c-.1-.7-.1-1.4-.1-2.1s-.2-1.4-.4-2.1a20.7,20.7,0,1,0-24.7,24.9,20,20,0,0,0,8.1.2,21.1,21.1,0,0,0,7.6-3.1,22.1,22.1,0,0,0,9.3-13.5h0Zm0,0h0a22.5,22.5,0,0,1-3.2,7.7,23.2,23.2,0,0,1-5.8,6.2,21.8,21.8,0,0,1-16.3,4.1A22.2,22.2,0,0,1,95.4,27.2,22.4,22.4,0,0,1,98.6,9.9,22.7,22.7,0,0,1,105,3.6,22.2,22.2,0,0,1,113.2.3,22.3,22.3,0,0,1,135.7,10a21.9,21.9,0,0,1,3.2,7.8c.1.7.2,1.4.3,2.1s.1,1.4.1,2.1A22.9,22.9,0,0,1,139.1,26.2Z"/>
    <path class="cls-1" d="M77.4.9a31.8,31.8,0,0,0-6.1,12.1,49.9,49.9,0,0,0-1.6,13.3,70.9,70.9,0,0,0,1.4,13.4,65.5,65.5,0,0,0,3.8,12.8l.6,1.5.7,1.6,1.4,3.2a56.8,56.8,0,0,1,2.4,6.7,32,32,0,0,1,.8,14.4,24.1,24.1,0,0,1-6.6,12.7,20.2,20.2,0,0,1-12.6,5.9,21.4,21.4,0,0,0,11.1-7.3,23.2,23.2,0,0,0,5-11.9,31.7,31.7,0,0,0,0-6.5,33.1,33.1,0,0,0-1.3-6.4A62.4,62.4,0,0,0,74,60.3l-1.4-3.1-.7-1.6-.7-1.6a65,65,0,0,1-4.6-27.8,45.6,45.6,0,0,1,2.9-13.8A28.2,28.2,0,0,1,77.4.9Z"/>
  </g>
</svg>
